HIERARCHY
ROOT joint_Root
{
	OFFSET 0.0 0.0 0.0
	CHANNELS 6 Xposition Yposition Zposition Zrotation Xrotation Yrotation 
	JOINT Hips
	{
		OFFSET 4.5925 91.4895 -427.239
		CHANNELS 6 Xposition Yposition Zposition Zrotation Xrotation Yrotation 
		JOINT Spine
		{
			OFFSET 15.7357 0.0 0.0
			CHANNELS 6 Xposition Yposition Zposition Zrotation Xrotation Yrotation 
			JOINT Chest
			{
				OFFSET 8.98455 -0.406207 0.0
				CHANNELS 6 Xposition Yposition Zposition Zrotation Xrotation Yrotation 
				JOINT Neck
				{
					OFFSET 16.3773 0.0 0.0
					CHANNELS 6 Xposition Yposition Zposition Zrotation Xrotation Yrotation 
					JOINT Head
					{
						OFFSET 6.45672 0.0 0.0
						CHANNELS 6 Xposition Yposition Zposition Zrotation Xrotation Yrotation 
						End Site
						{
							OFFSET 0.0 0.0 0.0
						}
					}
				}
				JOINT Shoulder_L
				{
					OFFSET 12.9942 -0.242716 4.98039
					CHANNELS 6 Xposition Yposition Zposition Zrotation Xrotation Yrotation 
					JOINT UpperArm_L
					{
						OFFSET 5.34809 0.0 0.0
						CHANNELS 6 Xposition Yposition Zposition Zrotation Xrotation Yrotation 
						JOINT LowerArm_L
						{
							OFFSET 24.3286 1.87007e-05 0.0
							CHANNELS 6 Xposition Yposition Zposition Zrotation Xrotation Yrotation 
							JOINT Hand_L
							{
								OFFSET 22.2916 0.0 0.0
								CHANNELS 6 Xposition Yposition Zposition Zrotation Xrotation Yrotation 
								End Site
								{
									OFFSET 0.0 0.0 0.0
								}
							}
						}
					}
				}
				JOINT Shoulder_R
				{
					OFFSET 12.9945 -0.242716 -4.98039
					CHANNELS 6 Xposition Yposition Zposition Zrotation Xrotation Yrotation 
					JOINT UpperArm_R
					{
						OFFSET -5.34813 0.0 0.0
						CHANNELS 6 Xposition Yposition Zposition Zrotation Xrotation Yrotation 
						JOINT LowerArm_R
						{
							OFFSET -24.3289 0.000322201 0.0
							CHANNELS 6 Xposition Yposition Zposition Zrotation Xrotation Yrotation 
							JOINT Hand_R
							{
								OFFSET -22.2915 -0.000108084 0.0
								CHANNELS 6 Xposition Yposition Zposition Zrotation Xrotation Yrotation 
								End Site
								{
									OFFSET 0.0 0.0 0.0
								}
							}
						}
					}
				}
			}
		}
		JOINT UpperLeg_L
		{
			OFFSET -2.19248 -6.46944 0.0
			CHANNELS 6 Xposition Yposition Zposition Zrotation Xrotation Yrotation 
			JOINT LowerLeg_L
			{
				OFFSET 39.0811 0.0 -1.23785e-05
				CHANNELS 6 Xposition Yposition Zposition Zrotation Xrotation Yrotation 
				JOINT Foot_L
				{
					OFFSET 40.9854 0.0 -1.26872e-05
					CHANNELS 6 Xposition Yposition Zposition Zrotation Xrotation Yrotation 
					JOINT Toes_L
					{
						OFFSET 11.7543 0.0 0.0
						CHANNELS 6 Xposition Yposition Zposition Zrotation Xrotation Yrotation 
						End Site
						{
							OFFSET 0.0 0.0 0.0
						}
					}
				}
			}
		}
		JOINT UpperLeg_R
		{
			OFFSET -2.19251 6.46944 0.0
			CHANNELS 6 Xposition Yposition Zposition Zrotation Xrotation Yrotation 
			JOINT LowerLeg_R
			{
				OFFSET -39.0811 -0.00228153 -0.0401928
				CHANNELS 6 Xposition Yposition Zposition Zrotation Xrotation Yrotation 
				JOINT Foot_R
				{
					OFFSET -40.9854 0.0 0.0
					CHANNELS 6 Xposition Yposition Zposition Zrotation Xrotation Yrotation 
					JOINT Toes_R
					{
						OFFSET -11.7543 0.0 0.0
						CHANNELS 6 Xposition Yposition Zposition Zrotation Xrotation Yrotation 
						End Site
						{
							OFFSET 0.0 0.0 0.0
						}
					}
				}
			}
		}
	}
}
MOTION
Frames:	6
Frame Time:	0.0333333
0.000000 0.000000 0.000000 0.000000 0.000000 -0.000000 2.177910 91.494900 0.118051 89.136700 -11.546100 5.217350 15.735700 0.000005 -0.000001 83.377300 85.302600 -80.828400 8.984550 -0.406207 -0.000000 1.598630 -1.219980 5.110410 16.377300 -0.000001 -0.000001 6.524220 1.178210 -5.636000 6.456720 -0.000001 -0.000000 0.464218 -0.227010 -4.171360 12.994200 -0.242716 4.980390 -84.580700 -9.903070 -61.118300 5.348090 -0.000007 -0.000001 -32.166800 -63.557700 -77.157100 24.328600 0.000019 0.000005 14.665000 11.259300 -53.273800 22.291600 -0.000001 0.000005 26.676500 5.344930 -1.225960 12.994500 -0.242716 -4.980390 88.027200 8.719860 -77.199200 -5.348130 -0.000001 -0.000004 -57.385100 17.841400 -5.051790 -24.328900 0.000322 -0.000009 0.675906 1.554720 -23.534200 -22.291500 -0.000108 -0.000004 15.206000 5.410370 -3.277890 -2.192480 -6.469440 -0.000000 -177.114000 -18.307900 -2.312830 39.081100 -0.000007 -0.000012 -0.110900 0.218287 26.932900 40.985400 -0.000006 -0.000013 1.777420 3.092700 -69.348200 11.754300 -0.000000 0.000003 -0.000053 -0.000598 -16.600700 -2.192510 6.469440 -0.000001 174.674000 18.588000 175.745000 -39.081100 -0.002282 -0.040193 -0.122999 0.253024 26.528200 -40.985400 0.000008 0.000006 2.515480 19.960800 -66.922300 -11.754300 -0.000006 -0.000006 -0.002332 -0.032797 -17.906800
0.000000 0.000000 0.000000 0.000000 0.000000 -0.000000 2.012640 91.517700 0.092288 89.193500 -10.652300 5.170200 15.735700 0.000005 -0.000001 83.403500 85.319300 -80.961200 8.984550 -0.406207 -0.000000 1.564110 -1.206880 4.896880 16.377300 -0.000001 -0.000001 6.485390 1.023520 -5.594690 6.456720 -0.000001 -0.000000 0.544176 -0.232257 -3.917860 12.994200 -0.242716 4.980390 -85.228200 -8.873850 -61.580400 5.348090 -0.000007 -0.000001 -29.305300 -61.935300 -72.680600 24.328600 0.000019 0.000005 15.337500 9.850430 -58.046100 22.291600 -0.000001 0.000005 26.500700 5.329840 -0.780155 12.994500 -0.242716 -4.980390 87.967000 8.819700 -76.964600 -5.348130 -0.000001 -0.000004 -57.785200 17.752400 -4.946120 -24.328900 0.000322 -0.000009 0.629886 1.475870 -23.149800 -22.291500 -0.000108 -0.000004 15.122100 5.412290 -3.341300 -2.192480 -6.469440 -0.000000 -177.079000 -17.924500 -2.420240 39.081100 -0.000007 -0.000012 -0.108655 0.214702 26.842900 40.985400 -0.000006 -0.000013 1.795220 3.625880 -69.211600 11.754300 -0.000000 0.000003 -0.000056 -0.000628 -16.601900 -2.192510 6.469440 -0.000001 174.647000 19.154700 175.904000 -39.081100 -0.002282 -0.040193 -0.131924 0.272372 26.404600 -40.985400 0.000008 0.000006 2.442000 19.678800 -66.932800 -11.754300 -0.000006 -0.000006 -0.002339 -0.032878 -17.910100
0.000000 0.000000 0.000000 0.000000 0.000000 -0.000000 1.839300 91.526000 0.090029 89.267800 -9.802030 5.219040 15.735700 0.000005 -0.000001 83.834800 85.310500 -81.507100 8.984550 -0.406207 -0.000000 1.586370 -1.132160 4.667000 16.377300 -0.000001 -0.000001 6.386330 0.917968 -5.422440 6.456720 -0.000001 -0.000000 0.625498 -0.220712 -3.829370 12.994200 -0.242716 4.980390 -85.894000 -7.806750 -62.144100 5.348090 -0.000007 -0.000001 -26.746700 -59.231400 -67.024100 24.328600 0.000019 0.000005 16.311200 7.827500 -65.043200 22.291600 -0.000001 0.000005 25.705500 5.310520 -0.223901 12.994500 -0.242716 -4.980390 87.935500 8.854650 -76.819800 -5.348130 -0.000001 -0.000004 -58.331800 18.066700 -4.757800 -24.328900 0.000322 -0.000009 0.433424 1.035130 -22.770800 -22.291500 -0.000108 -0.000004 15.181800 5.411130 -3.302660 -2.192480 -6.469440 -0.000000 -177.008000 -17.696000 -2.425630 39.081100 -0.000007 -0.000012 -0.104852 0.207527 26.805000 40.985400 -0.000006 -0.000013 1.835670 4.245840 -69.127000 11.754300 -0.000000 0.000003 -0.000051 -0.000572 -16.599800 -2.192510 6.469440 -0.000001 174.591000 19.692700 176.113000 -39.081100 -0.002282 -0.040193 -0.135014 0.278702 26.395900 -40.985400 0.000008 0.000006 2.470520 19.388900 -67.044200 -11.754300 -0.000006 -0.000006 -0.002410 -0.033736 -17.944900
0.000000 0.000000 0.000000 0.000000 0.000000 -0.000000 1.662920 91.531400 0.086511 89.353500 -9.007520 5.295280 15.735700 0.000005 -0.000001 84.542800 85.288600 -82.348400 8.984550 -0.406207 -0.000000 1.637490 -1.012900 4.399350 16.377300 -0.000001 -0.000001 6.166480 0.727688 -5.146240 6.456720 -0.000001 -0.000000 0.677124 -0.204139 -3.740160 12.994200 -0.242716 4.980390 -86.480000 -6.855540 -62.737300 5.348090 -0.000007 -0.000001 -24.886200 -55.123500 -60.465700 24.328600 0.000019 0.000005 17.162200 5.193140 -73.665000 22.291600 -0.000001 0.000005 24.560900 5.302740 -0.005148 12.994500 -0.242716 -4.980390 87.923100 8.869080 -76.763800 -5.348130 -0.000001 -0.000004 -59.017200 18.566500 -4.620060 -24.328900 0.000322 -0.000009 0.327812 0.808828 -22.126100 -22.291500 -0.000108 -0.000004 15.112200 5.410610 -3.285410 -2.192480 -6.469440 -0.000000 -176.969000 -17.282800 -2.408960 39.081100 -0.000007 -0.000012 -0.103818 0.205807 26.768500 40.985400 -0.000006 -0.000013 1.815970 4.657790 -69.041100 11.754300 -0.000000 0.000003 -0.000044 -0.000502 -16.597100 -2.192510 6.469440 -0.000001 174.529000 20.158600 176.323000 -39.081100 -0.002282 -0.040193 -0.138095 0.284621 26.419100 -40.985400 0.000008 0.000006 2.523330 19.050200 -67.174800 -11.754300 -0.000006 -0.000006 -0.002472 -0.034475 -17.975000
0.000000 0.000000 0.000000 0.000000 0.000000 -0.000000 1.491840 91.531100 0.069472 89.430200 -8.181620 5.374800 15.735700 0.000005 -0.000001 85.158900 85.253900 -83.094100 8.984550 -0.406207 -0.000000 1.712290 -0.909626 4.139510 16.377300 -0.000001 -0.000001 5.845100 0.423860 -4.723740 6.456720 -0.000001 -0.000000 0.672948 -0.311668 -3.742580 12.994200 -0.242716 4.980390 -87.127700 -5.800850 -63.600500 5.348090 -0.000007 -0.000001 -23.147500 -49.563100 -52.943400 24.328600 0.000019 0.000005 17.759700 2.343750 -82.724300 22.291600 -0.000001 0.000005 22.842300 5.302180 0.010530 12.994500 -0.242716 -4.980390 87.908300 8.907020 -76.727200 -5.348130 -0.000001 -0.000004 -59.693400 19.325500 -4.489650 -24.328900 0.000322 -0.000009 0.243019 0.619630 -21.498800 -22.291500 -0.000108 -0.000004 14.918900 5.407330 -3.177010 -2.192480 -6.469440 -0.000000 -176.959000 -16.680100 -2.437070 39.081100 -0.000007 -0.000012 -0.105712 0.209459 26.779700 40.985400 -0.000006 -0.000013 1.762570 4.912210 -68.960900 11.754300 -0.000000 0.000003 -0.000047 -0.000532 -16.598200 -2.192510 6.469440 -0.000001 174.496000 20.501500 176.505000 -39.081100 -0.002282 -0.040193 -0.140808 0.289409 26.472100 -40.985400 0.000008 0.000006 2.548390 18.593700 -67.304100 -11.754300 -0.000006 -0.000006 -0.002377 -0.033342 -17.928900
0.000000 0.000000 0.000000 0.000000 0.000000 -0.000000 1.307820 91.521600 0.040598 89.501100 -7.385560 5.459080 15.735700 0.000005 -0.000001 86.084900 85.192200 -84.187100 8.984550 -0.406207 -0.000000 1.842510 -0.754170 3.804350 16.377300 -0.000001 -0.000001 5.391430 0.070077 -4.116950 6.456720 -0.000001 -0.000000 0.485915 -0.563152 -3.578230 12.994200 -0.242716 4.980390 -87.807400 -4.673070 -64.831100 5.348090 -0.000007 -0.000001 -21.551300 -42.418400 -45.007500 24.328600 0.000019 0.000005 17.672400 -0.277327 -90.869500 22.291600 -0.000001 0.000005 21.043800 5.309090 -0.184948 12.994500 -0.242716 -4.980390 87.872900 9.016800 -76.667200 -5.348130 -0.000001 -0.000004 -60.400000 20.252700 -4.335820 -24.328900 0.000322 -0.000009 0.181612 0.476265 -20.983100 -22.291500 -0.000108 -0.000004 14.729800 5.403090 -3.038090 -2.192480 -6.469440 -0.000000 -176.953000 -16.014400 -2.503090 39.081100 -0.000007 -0.000012 -0.106962 0.211252 26.854300 40.985400 -0.000006 -0.000013 1.688290 5.094400 -68.901100 11.754300 -0.000000 0.000003 -0.000050 -0.000565 -16.599500 -2.192510 6.469440 -0.000001 174.494000 20.757500 176.645000 -39.081100 -0.002282 -0.040193 -0.145479 0.297333 26.584000 -40.985400 0.000008 0.000006 2.574410 18.064400 -67.452900 -11.754300 -0.000006 -0.000006 -0.002358 -0.033107 -17.919400
